<svg aria-hidden="true" style="position: absolute; width: 0; height: 0; overflow: hidden;" version="1.1" xmlns="http://www.w3.org/2000/svg" xmlns:xlink="http://www.w3.org/1999/xlink">
<defs>
<symbol id="icon-create1" viewBox="0 0 32 32">
<path fill="none" stroke-linejoin="miter" stroke-linecap="butt" stroke-miterlimit="4" stroke-width="0.3556" d="M31.822 16c0 8.738-7.084 15.822-15.822 15.822s-15.822-7.084-15.822-15.822c0-8.738 7.084-15.822 15.822-15.822s15.822 7.084 15.822 15.822z"></path>
<path d="M22.874 8.889h-10.667c-0.131 0-0.237 0.106-0.237 0.237v3.556h0.474v-3.319h10.193v13.037c0.002 0.125-0.094 0.229-0.218 0.237-0.020 0-0.041-0.002-0.061-0.002-0.042-0.001-0.084-0.002-0.125-0.006-0.004 0-0.007 0-0.010-0.001-0.774-0.085-1.386-0.696-1.471-1.47 0-0.003-0.001-0.007-0.002-0.010-0.006-0.056-0.009-0.113-0.009-0.169v-0.474c0-0.131-0.106-0.237-0.237-0.237h-8.059v-4.267h-0.474v4.267h-1.896c-0.131 0-0.237 0.106-0.237 0.237v0.474c0.001 1.178 0.956 2.132 2.133 2.133h10.453c0.385-0.010 0.69-0.326 0.687-0.711v-13.274c0-0.131-0.106-0.237-0.237-0.237zM11.97 22.637c-0.916-0.001-1.658-0.743-1.659-1.659v-0.237h9.956v0.237c0 0.078 0.005 0.156 0.014 0.234 0.002 0.021 0.006 0.041 0.009 0.061 0.008 0.057 0.017 0.114 0.030 0.171 0.004 0.020 0.010 0.039 0.015 0.059 0.014 0.057 0.031 0.113 0.050 0.169 0.005 0.016 0.011 0.032 0.017 0.047 0.022 0.059 0.046 0.116 0.073 0.173 0.006 0.012 0.011 0.024 0.017 0.034 0.030 0.060 0.062 0.118 0.098 0.175 0.005 0.008 0.009 0.015 0.014 0.024 0.039 0.061 0.080 0.119 0.125 0.175l0.008 0.010c0.052 0.065 0.107 0.127 0.166 0.186 0.051 0.051 0.104 0.098 0.159 0.142l-9.088-0.001z"></path>
<path d="M16.711 15.526c0.063 0 0.123-0.025 0.168-0.069l0.948-0.948c0.093-0.093 0.093-0.243 0-0.335l-0.948-0.948c-0.044-0.044-0.105-0.069-0.168-0.069h-6.637c-0.655 0-1.185 0.531-1.185 1.185s0.531 1.185 1.185 1.185h6.637zM16.65 13.667l0.674 0.674-0.674 0.674-0.169-0.674 0.169-0.674zM10.785 13.63h5.386l-0.119 0.474h-4.793v0.474h4.793l0.119 0.474h-5.386v-1.422zM9.363 14.341c0-0.393 0.318-0.711 0.711-0.711h0.237v1.422h-0.237c-0.393 0-0.711-0.318-0.711-0.711z"></path>
<path d="M14.34 19.081h7.111c0.131 0 0.237-0.106 0.237-0.237v-7.111c-0-0.131-0.106-0.237-0.237-0.237-0.063 0-0.123 0.025-0.168 0.069l-7.111 7.111c-0.093 0.093-0.092 0.243 0 0.335 0.044 0.044 0.105 0.069 0.168 0.069zM21.215 12.306v0.613h-0.474v0.474h0.474v0.474h-0.474v0.474h0.474v0.474h-0.474v0.474h0.474v0.474h-0.474v0.474h0.474v0.474h-0.474v0.474h0.474v0.474h-0.474v0.474h0.474v0.474h-0.474v-0.474h-0.474v0.474h-0.474v-0.474h-0.474v0.474h-0.474v-0.474h-0.474v0.474h-0.474v-0.474h-0.474v0.474h-0.474v-0.474h-0.474v0.474h-0.474v-0.474h-0.474v0.474h-0.613l6.302-6.302z"></path>
<path d="M17.774 17.659h2.255c0.131 0 0.237-0.106 0.237-0.237v-2.255c0-0.131-0.106-0.237-0.237-0.237-0.063 0-0.123 0.025-0.168 0.069l-2.255 2.255c-0.093 0.093-0.093 0.243 0 0.335 0.044 0.044 0.105 0.069 0.168 0.069zM19.793 15.739v1.446h-1.446l1.446-1.446z"></path>
<path d="M19.793 10.311h-4.741v0.474h4.741v-0.474z"></path>
<path d="M20.504 11.259h-6.163v0.474h6.163v-0.474z"></path>
<path d="M14.341 16.237h-1.422v0.474h1.422v-0.474z"></path>
<path d="M13.867 17.185h-0.948v0.474h0.948v-0.474z"></path>
</symbol>




<symbol id="icon-create" fill="none" viewBox="0 0 90 90" >
<circle id="icon-create-2" cx="45" cy="45" r="44.5"/>
<path d="M64.3326 25H34.3327C33.9645 25 33.666 25.2985 33.666 25.6667V35.6666H34.9993V26.3333H63.6659V62.9999C63.6724 63.3505 63.4019 63.6442 63.0519 63.6666C62.9946 63.6666 62.9373 63.6619 62.8799 63.6606C62.7619 63.6573 62.6439 63.6546 62.5279 63.6426C62.5179 63.6426 62.5086 63.6426 62.4986 63.6386C60.3213 63.4006 58.6014 61.6823 58.3613 59.5053C58.3613 59.4959 58.358 59.4859 58.3566 59.4766C58.3405 59.3182 58.3325 59.1591 58.3326 58.9999V57.6666C58.3326 57.2984 58.0341 56.9999 57.666 56.9999H34.9993V45H33.666V56.9999H28.3327C27.9645 56.9999 27.666 57.2984 27.666 57.6666V58.9999C27.6697 62.3121 30.3538 64.9962 33.666 64.9999H63.0659C64.1478 64.9716 65.0076 64.0821 64.9993 62.9999V25.6667C64.9993 25.2985 64.7008 25 64.3326 25ZM33.666 63.6666C31.0899 63.6637 29.0023 61.576 28.9993 58.9999V58.3333H56.9993V58.9999C57.0002 59.2198 57.0129 59.4394 57.0373 59.6579C57.0433 59.7159 57.0546 59.7719 57.0626 59.8293C57.0846 59.9906 57.1113 60.1513 57.1466 60.3093C57.1586 60.3646 57.174 60.4193 57.188 60.4746C57.2286 60.6353 57.2746 60.7933 57.328 60.9493C57.3433 60.9939 57.3593 61.0379 57.376 61.0826C57.4366 61.2479 57.5053 61.4093 57.5806 61.5686C57.5966 61.6013 57.6113 61.6353 57.6273 61.6653C57.7109 61.8342 57.8026 61.9983 57.9026 62.1579C57.916 62.1793 57.928 62.2013 57.9413 62.2246C58.05 62.3948 58.1673 62.5595 58.2926 62.7179L58.314 62.7466C58.4595 62.9293 58.6153 63.1036 58.7806 63.2686C58.9242 63.4108 59.073 63.5442 59.2273 63.6686L33.666 63.6666Z" />
<path d="M47 43.6667C47.1768 43.6667 47.3463 43.5963 47.4713 43.4713L50.1379 40.8047C50.3982 40.5443 50.3982 40.1223 50.1379 39.862L47.4713 37.1953C47.3463 37.0703 47.1768 37 47 37H28.3333C26.4924 37 25 38.4924 25 40.3333C25 42.1742 26.4924 43.6667 28.3333 43.6667H47ZM46.828 38.4373L48.7239 40.3333L46.828 42.2293L46.354 40.3333L46.828 38.4373ZM30.3333 38.3333H45.48L45.1466 39.6667H31.6667V41H45.1466L45.48 42.3333H30.3333V38.3333ZM26.3333 40.3333C26.3333 39.2287 27.2287 38.3333 28.3333 38.3333H29V42.3333H28.3333C27.2287 42.3333 26.3333 41.4379 26.3333 40.3333Z" />
<path d="M40.3325 53.6666H60.3325C60.7007 53.6666 60.9992 53.3681 60.9992 52.9999V33C60.9991 32.6318 60.7006 32.3334 60.3323 32.3335C60.1556 32.3335 59.9862 32.4037 59.8612 32.5287L39.8612 52.5286C39.6009 52.789 39.601 53.2111 39.8614 53.4714C39.9864 53.5964 40.1558 53.6666 40.3325 53.6666ZM59.6658 34.6093V36.3333H58.3325V37.6666H59.6658V39H58.3325V40.3333H59.6658V41.6666H58.3325V43H59.6658V44.3333H58.3325V45.6666H59.6658V47H58.3325V48.3333H59.6658V49.6666H58.3325V50.9999H59.6658V52.3333H58.3325V50.9999H56.9992V52.3333H55.6658V50.9999H54.3325V52.3333H52.9992V50.9999H51.6659V52.3333H50.3325V50.9999H48.9992V52.3333H47.6659V50.9999H46.3325V52.3333H44.9992V50.9999H43.6659V52.3333H41.9419L59.6658 34.6093Z" />
<path d="M49.9907 49.6667H56.3341C56.7022 49.6667 57.0007 49.3682 57.0007 49V42.6567C57.0007 42.2886 56.7022 41.9902 56.3339 41.9902C56.1572 41.9902 55.9877 42.0605 55.8627 42.1854L49.5194 48.5287C49.2591 48.7891 49.2592 49.2112 49.5196 49.4715C49.6446 49.5965 49.814 49.6667 49.9907 49.6667ZM55.6674 44.2667V48.3334H51.6007L55.6674 44.2667Z" />
<path d="M55.6673 29H42.334V30.3333H55.6673V29Z" />
<path d="M57.6673 31.6665H40.334V32.9998H57.6673V31.6665Z" />
<path d="M40.334 45.6665H36.334V46.9998H40.334V45.6665Z" />
<path d="M39.0006 48.3335H36.334V49.6668H39.0006V48.3335Z" />
</symbol>

</defs>
</svg>
